<?xml version="1.0" encoding="utf-8"?>
<svg width="62" height="62" viewBox="0 0 62 62" fill="none" xmlns="http://www.w3.org/2000/svg">
<rect width="60" height="60" transform="translate(1 61) rotate(-90)" fill="black" fill-opacity="0.5"/>
<path d="M46 61L61 61L61 46" stroke="#5C5C5C" stroke-width="2"/>
<path d="M16 1L1 1L1 16" stroke="#F7931E" stroke-width="2"/>
<path d="M16 1L1 1L1 16" stroke="#F7931E" stroke-width="2"/>
<path d="M46 1L61 1L61 16" stroke="#5C5C5C" stroke-width="2"/>
<path d="M16 61L1 61L1 46" stroke="#5C5C5C" stroke-width="2"/>
<path fill-rule="evenodd" clip-rule="evenodd" d="M43.4963 31C43.4963 37.9036 37.8999 43.5 30.9963 43.5C24.0928 43.5 18.4963 37.9036 18.4963 31C18.4963 24.0964 24.0928 18.5 30.9963 18.5C37.8999 18.5 43.4963 24.0964 43.4963 31ZM31.4443 27.7281C30.2285 28.2338 27.7986 29.2804 24.1545 30.8681C23.5628 31.1034 23.2528 31.3336 23.2246 31.5587C23.1769 31.9391 23.6533 32.0889 24.302 32.2928C24.3903 32.3206 24.4817 32.3493 24.5754 32.3798C25.2137 32.5873 26.0722 32.83 26.5185 32.8396C26.9233 32.8484 27.3752 32.6815 27.8741 32.3389C31.2788 30.0406 33.0363 28.879 33.1466 28.8539C33.2245 28.8363 33.3324 28.814 33.4055 28.879C33.4785 28.944 33.4714 29.067 33.4636 29.1C33.4164 29.3012 31.5464 31.0397 30.5787 31.9394C30.2771 32.2198 30.0631 32.4188 30.0193 32.4642C29.9213 32.566 29.8215 32.6623 29.7255 32.7548C29.1325 33.3264 28.6879 33.755 29.7501 34.455C30.2605 34.7914 30.669 35.0695 31.0765 35.347C31.5215 35.6501 31.9654 35.9524 32.5397 36.3288C32.686 36.4247 32.8257 36.5244 32.9618 36.6214C33.4797 36.9906 33.945 37.3223 34.5199 37.2694C34.8539 37.2387 35.1989 36.9246 35.3741 35.9879C35.7882 33.7741 36.6022 28.9776 36.7903 27.001C36.8068 26.8278 36.7861 26.6062 36.7694 26.5089C36.7528 26.4116 36.718 26.273 36.5915 26.1704C36.4417 26.0489 36.2105 26.0233 36.1071 26.025C35.637 26.0334 34.9156 26.2842 31.4443 27.7281Z" stroke="#969696" stroke-width="1.5" stroke-linejoin="round"/>
</svg>
