<?xml version="1.0" encoding="utf-8"?>
<svg width="62" height="62" viewBox="0 0 62 62" fill="none" xmlns="http://www.w3.org/2000/svg">
<rect width="60" height="60" transform="translate(61 1) rotate(90)" fill="black" fill-opacity="0.5"/>
<path d="M16 1L1 0.999999L0.999999 16" stroke="#5C5C5C" stroke-width="2"/>
<path d="M46 61L61 61L61 46" stroke="#F7931E" stroke-width="2"/>
<path d="M46 61L61 61L61 46" stroke="#F7931E" stroke-width="2"/>
<path d="M16 61L1 61L1 46" stroke="#5C5C5C" stroke-width="2"/>
<path d="M46 1L61 1L61 16" stroke="#5C5C5C" stroke-width="2"/>
<path d="M43.5 31C43.5 24.0964 37.9036 18.5 31 18.5C24.0964 18.5 18.5 24.0964 18.5 31C18.5 37.2391 23.0711 42.4104 29.0469 43.3481V34.6133H25.873V31H29.0469V28.2461C29.0469 25.1133 30.913 23.3828 33.7683 23.3828C35.1359 23.3828 36.5664 23.627 36.5664 23.627V26.7031H34.9902C33.4374 26.7031 32.9531 27.6667 32.9531 28.6552V31H36.4199L35.8657 34.6133H32.9531V43.3481C38.9289 42.4104 43.5 37.2391 43.5 31Z" stroke="#969696" stroke-width="1.5" stroke-linejoin="round"/>
</svg>
