<?xml version="1.0" encoding="utf-8"?>
<svg width="62" height="62" viewBox="0 0 62 62" fill="none" xmlns="http://www.w3.org/2000/svg">
<rect width="60" height="60" transform="translate(1 61) rotate(-90)" fill="black" fill-opacity="0.5"/>
<path d="M46 61L61 61L61 46" stroke="#5C5C5C" stroke-width="2"/>
<path d="M16 1L1 1L1 16" stroke="#F7931E" stroke-width="2"/>
<path d="M46 1L61 1L61 16" stroke="#5C5C5C" stroke-width="2"/>
<path d="M16 61L1 61L1 46" stroke="#5C5C5C" stroke-width="2"/>
<path d="M19.8271 25.0558C19.8856 23.7783 20.0856 22.9544 20.3561 22.255L20.3598 22.2454C20.6278 21.5337 21.0478 20.889 21.5903 20.3561L21.5979 20.3486L21.6054 20.341C22.1387 19.7978 22.7837 19.3782 23.4947 19.1109L23.507 19.1062C24.2048 18.8348 25.0271 18.6355 26.3056 18.5771M19.8271 25.0558C19.7657 26.4207 19.75 26.8439 19.75 30.3828C19.75 33.9227 19.7648 34.3448 19.8271 35.71M19.8271 25.0558L19.8271 25.4001M20.3609 38.5209C20.6282 39.232 21.0478 39.8769 21.591 40.4102L21.5986 40.4177L21.6061 40.4253C22.139 40.9679 22.7837 41.3878 23.4954 41.6559L23.506 41.6599C24.2044 41.9308 25.0271 42.1301 26.3056 42.1886M20.3609 38.5209L20.3562 38.5087C20.0848 37.8109 19.8855 36.9886 19.8271 35.71M20.3609 38.5209L20.3448 38.4365M19.8271 35.71L19.848 35.8203M19.8271 35.71L19.8271 35.3649M20.3448 38.4365L19.848 35.8203M20.3448 38.4365C20.1338 37.8791 19.9166 37.1013 19.848 35.8203M20.3448 38.4365C20.3522 38.4561 20.3596 38.4754 20.367 38.4944C20.6346 39.2158 21.0586 39.869 21.6085 40.4071C22.1464 40.9569 22.7993 41.3808 23.5205 41.6483C24.0992 41.8738 24.9147 42.1094 26.3054 42.1731C27.7089 42.237 28.1425 42.25 31.6328 42.25C35.1231 42.25 35.5571 42.237 36.9606 42.1731C38.3531 42.1093 39.1676 41.8724 39.7443 41.6487C40.4658 41.3812 41.1191 40.9572 41.6572 40.407C42.2069 39.8692 42.6308 39.2163 42.8984 38.4952C43.1238 37.9164 43.3594 37.101 43.4231 35.7102C43.487 34.3067 43.5 33.8723 43.5 30.3828C43.5 26.8934 43.487 26.4585 43.4231 25.0551C43.3589 23.6553 43.1199 22.8396 42.8952 22.2624C42.6014 21.504 42.2289 20.9305 41.6562 20.3578C41.0848 19.7875 40.5127 19.4147 39.7538 19.1207C39.1746 18.8942 38.3583 18.6566 36.9606 18.5926C36.8391 18.587 36.7248 18.5819 36.6152 18.5771M19.848 35.8203C19.8461 35.7841 19.8443 35.7476 19.8426 35.7106C19.837 35.589 19.8319 35.4746 19.8271 35.3649M26.3056 18.5771C27.6709 18.5148 28.0938 18.5 31.6328 18.5C35.1718 18.5 35.5946 18.5156 36.9595 18.5771M26.3056 18.5771L26.6508 18.5771M36.9595 18.5771L36.6152 18.5771M36.9595 18.5771C38.2372 18.6355 39.0612 18.8355 39.7607 19.1061L39.7703 19.1098C40.482 19.3778 41.1267 19.7978 41.6595 20.3403L41.6669 20.3479L41.6745 20.3553C42.2171 20.8882 42.637 21.5331 42.9049 22.2449L42.9095 22.257C43.1808 22.9548 43.3801 23.7771 43.4386 25.0556M26.6508 18.5771L36.6152 18.5771M26.6508 18.5771C27.8069 18.5265 28.4459 18.5157 31.6328 18.5157C34.8201 18.5157 35.4589 18.5265 36.6152 18.5771M26.6508 18.5771C26.5411 18.5819 26.4267 18.587 26.3051 18.5926C24.9126 18.6564 24.0981 18.8933 23.5214 19.117C22.7971 19.3855 22.1416 19.8117 21.6024 20.3648C21.0352 20.9344 20.6638 21.5053 20.3707 22.2617C20.1442 22.841 19.9066 23.6577 19.8426 25.0554C19.837 25.1767 19.8319 25.2907 19.8271 25.4001M43.4386 35.71C43.3801 36.9885 43.1808 37.8113 42.91 38.5097L42.9059 38.5203C42.6378 39.232 42.2179 39.8767 41.6753 40.4095L41.6677 40.417L41.6602 40.4246C41.1269 40.9679 40.482 41.3874 39.7709 41.6548L39.7587 41.6595C39.0609 41.9308 38.2386 42.1301 36.96 42.1886M19.8271 35.3649C19.7765 34.2088 19.7657 33.5698 19.7657 30.3828C19.7657 27.1949 19.7765 26.5568 19.8271 25.4001M19.8271 35.3649L19.8271 25.4001M29.5194 35.4851C30.1894 35.7627 30.9076 35.9055 31.6328 35.9055C33.0975 35.9055 34.5023 35.3237 35.538 34.288C36.5737 33.2523 37.1555 31.8475 37.1555 30.3828C37.1555 28.9181 36.5737 27.5134 35.538 26.4777C34.5023 25.442 33.0975 24.8601 31.6328 24.8601C30.9076 24.8601 30.1894 25.003 29.5194 25.2805C28.8493 25.5581 28.2405 25.9649 27.7277 26.4777C27.2149 26.9905 26.8081 27.5993 26.5305 28.2694C26.253 28.9394 26.1101 29.6576 26.1101 30.3828C26.1101 31.1081 26.253 31.8262 26.5305 32.4963C26.8081 33.1663 27.2149 33.7751 27.7277 34.288C28.2405 34.8008 28.8493 35.2076 29.5194 35.4851ZM27.7154 26.4654C28.7544 25.4264 30.1635 24.8427 31.6328 24.8427C33.1022 24.8427 34.5113 25.4264 35.5503 26.4654C36.5892 27.5044 37.1729 28.9135 37.1729 30.3828C37.1729 31.8522 36.5892 33.2613 35.5503 34.3003C34.5113 35.3392 33.1022 35.9229 31.6328 35.9229C30.1635 35.9229 28.7544 35.3392 27.7154 34.3003C26.6764 33.2613 26.0927 31.8522 26.0927 30.3828C26.0927 28.9135 26.6764 27.5044 27.7154 26.4654ZM40.2925 23.5529C40.2925 23.9734 40.1255 24.3767 39.8281 24.6741C39.5307 24.9715 39.1274 25.1385 38.7068 25.1385C38.2863 25.1385 37.883 24.9715 37.5856 24.6741C37.2882 24.3767 37.1212 23.9734 37.1212 23.5529C37.1212 23.1323 37.2882 22.729 37.5856 22.4316C37.883 22.1342 38.2863 21.9672 38.7068 21.9672C39.1274 21.9672 39.5307 22.1342 39.8281 22.4316C40.1255 22.729 40.2925 23.1323 40.2925 23.5529Z" stroke="#969696" stroke-width="1.5" stroke-linejoin="round"/>
</svg>
